<?xml version="1.0" encoding="UTF-8"?>
<svg xmlns="http://www.w3.org/2000/svg" xmlns:xlink="http://www.w3.org/1999/xlink" width="100px" height="85px" viewBox="0 0 316 381" preserveAspectRatio="none">
   <defs />
   <style>.as39dKGuiacolors-0 {fill:#F90000;fill-opacity:0.5;}.azm6CZq_Ugcolor {fill:#313131;fill-opacity:1;}.companyName {fill:#000;fill-opacity:1;}</style>
   <g opacity="1" transform="rotate(0 22.0933 0)">
      <!-- <svg viewBox="0 0 316 381" width="4147.4748403657695px" height="5000px" xmlns="http://www.w3.org/2000/svg" xmlns:xlink="http://www.w3.org/1999/xlink" preserveAspectRatio="none"><defs></defs><style>.as39dKGuiacolors-0 {fill:#F90000;fill-opacity:0.34;}.azm6CZq_Ugcolor {fill:#313131;fill-opacity:1;}.companyName {fill:#DDDDDD;fill-opacity:1;}</style><g opacity="1" transform="rotate(0 22.0933 0)"> -->
      <svg width="218" height="381.6269" x="50" y="0" version="1.1" preserveAspectRatio="none" viewBox="18.39999771118164 5.438650131225586 63.20000076293945 88.55137634277344">
         <g transform="matrix(1 0 0 1 0 0)" class="as39dKGuiacolors-0">
            <title>Hop-Flower</title>
            <path d="M76.47,34.57a1.23,1.23,0,0,0,1.3-.15,1.31,1.31,0,0,0,.43-1.54c-.2-.48-4.87-11.76-14.88-14.13a42.56,42.56,0,0,0-10.4-1.43c-1.83-4.66.3-10,.33-10.07a1.33,1.33,0,0,0-.1-1.18,1.29,1.29,0,0,0-1-.62,30.61,30.61,0,0,0-5.65.37,1.29,1.29,0,0,0-1,.78,1.35,1.35,0,0,0,.13,1.26c.75,1.07.59,5.7,0,9.5a45.88,45.88,0,0,0-8.94,1.39C26.67,21.12,22,32.4,21.8,32.88a1.31,1.31,0,0,0,.43,1.54,1.23,1.23,0,0,0,1.3.15c-2.43,3.82-5.09,9.28-5.13,14.1a1.31,1.31,0,0,0,.54,1.06,1.29,1.29,0,0,0,.77.25,1.13,1.13,0,0,0,.32,0c-1.76,12.48,2.82,16.49,3,16.66a1.27,1.27,0,0,0,.84.31,1.3,1.3,0,0,0,.68-.19l.31-.2C26.73,74.77,30.82,79,31,79.15a1.3,1.3,0,0,0,.93.38h.15a1.29,1.29,0,0,0,1-.6c.05-.08.47-.76,1.06-1.75,1.38,3.27,4.16,8.69,8.38,11.59a1.38,1.38,0,0,0,.75.23,1.31,1.31,0,0,0,.86-.33l.55-.52,4.64,5.39a1.32,1.32,0,0,0,1,.45h0a1.31,1.31,0,0,0,1-.46l4.31-5.1c.25.2.41.31.45.34a1.31,1.31,0,0,0,.73.23,1.33,1.33,0,0,0,.85-.31,33.54,33.54,0,0,0,8.32-11.31c.58.91,1,1.51,1,1.59a1.33,1.33,0,0,0,1,.57h.12a1.3,1.3,0,0,0,.93-.38c.18-.19,4.27-4.38,6.11-12.64l.31.2a1.3,1.3,0,0,0,.68.19,1.27,1.27,0,0,0,.84-.31c.21-.17,4.79-4.17,3-16.65a1.12,1.12,0,0,0,.32,0,1.28,1.28,0,0,0,.79-.27,1.3,1.3,0,0,0,.52-1C81.56,43.85,78.9,38.39,76.47,34.57Zm-2.73-4.44-1.1-.45h0a136.45,136.45,0,0,0-13.83-4.21A11.28,11.28,0,0,1,52.45,21a3.33,3.33,0,0,0,.57-1,40.49,40.49,0,0,1,9.69,1.36C68,22.55,71.67,26.89,73.74,30.13ZM49.86,22.21l.26,0A14.33,14.33,0,0,0,55,26.74c1.26,6.87-2.63,10.8-6,12.87a1,1,0,0,0-.17.1A19.3,19.3,0,0,1,45.1,41.4c-1.65-1.57-6.7-7-4.43-13,0,0,0-.06,0-.09L41.89,28A13.88,13.88,0,0,0,49.86,22.21ZM43.94,43.87a1.28,1.28,0,0,0,.83.3,1.12,1.12,0,0,0,.32,0,19.3,19.3,0,0,0,3.13-1.2,21.64,21.64,0,0,0,1.06,6.46C47,55.56,43.41,58.14,41.86,59c-1.75-2-6.64-8.19-6.23-16.63a18.93,18.93,0,0,0,3.93-3.7A21.5,21.5,0,0,0,43.94,43.87ZM40.67,61.55a1.33,1.33,0,0,0,.9.36,1.48,1.48,0,0,0,.46-.08c.23-.09,5.16-2,8.61-9a33.59,33.59,0,0,0,1.84,3.35c-2.37,10.41-7.74,15.47-9.68,17A23.69,23.69,0,0,1,34.55,55.6c.28-.6.53-1.23.76-1.87A27.62,27.62,0,0,0,40.67,61.55Zm13.78-2.5a28.22,28.22,0,0,0,2.09,2.46,1.3,1.3,0,0,0,.93.4,1.33,1.33,0,0,0,.84-.3,26.63,26.63,0,0,0,6.26-8.22A21.38,21.38,0,0,0,66.19,57c-1.64,9.17-6.95,13.79-8.72,15.1-.87-.59-2.82-2.26-5.5-6.57A37.61,37.61,0,0,0,54.45,59.05Zm3.11-.33c-2.1-2.5-7.31-9.55-6.65-17.29A15.57,15.57,0,0,0,56.8,34.8a27.71,27.71,0,0,0,7.44,7.63C64.73,50.57,59.68,56.57,57.56,58.72ZM48.11,18.29a1.05,1.05,0,0,0,.06-.24c.2-1.24,1-6.56.3-9.84.55-.06,1.17-.12,1.76-.15-.63,2.36-1.33,6.66.41,10.65a1.08,1.08,0,0,1-.27.65,1.75,1.75,0,0,1-1.25.26c-.52-.05-.88-.18-1-.37A1.33,1.33,0,0,1,48.11,18.29Zm-10.82,3A42.3,42.3,0,0,1,45.59,20a3.34,3.34,0,0,0,.31.67,3.29,3.29,0,0,0,1.09,1,11.15,11.15,0,0,1-5.77,3.78,136.45,136.45,0,0,0-13.83,4.21h0l-1.11.45C28.32,26.9,32,22.55,37.29,21.3ZM21.18,46.77c1-6.57,6.41-13.5,7.44-14.77,2.7-1,6-2,9.1-2.88a12,12,0,0,0,.51,6.74c-2.13,4.58-11.57,8.89-16.92,10.87Zm3,17.06c-1-1.61-2.85-5.93-1.31-14.89A65.93,65.93,0,0,0,33,44.12a24.3,24.3,0,0,0,.72,5.06C32.79,56.84,26.56,62.07,24.16,63.83ZM31.77,76a27.76,27.76,0,0,1-4.55-11.17,29.58,29.58,0,0,0,5-5.3,25.6,25.6,0,0,0,3.23,9A47.11,47.11,0,0,1,31.77,76ZM43.11,86C38.93,82.5,36.41,76,35.76,74.2c.53-1,1.05-2.06,1.49-3.06A23.29,23.29,0,0,0,42,75.91a1.28,1.28,0,0,0,.75.23,1.24,1.24,0,0,0,.67-.19,16.21,16.21,0,0,0,2.72-2.22,43.11,43.11,0,0,0,2,4.84A32,32,0,0,1,43.11,86Zm7.16,4.71L46.4,86.17a34.45,34.45,0,0,0,3.28-4.84,30.43,30.43,0,0,0,4,5.3ZM56.74,86c-1.71-1.52-5.87-5.91-8.56-14.45a28.9,28.9,0,0,0,2.35-3.35c3.72,5.61,6.16,6.6,6.65,6.75a1.57,1.57,0,0,0,.37,0,1.35,1.35,0,0,0,.67-.18,19.45,19.45,0,0,0,4.19-3.68c.54,1.16,1.2,2.39,1.86,3.52A33.07,33.07,0,0,1,56.74,86ZM68.18,76a45.08,45.08,0,0,1-3.91-7.29,27.9,27.9,0,0,0,3.92-8.67,30.26,30.26,0,0,0,4.59,4.73A28,28,0,0,1,68.18,76Zm7.67-12.18c-2.43-1.77-8.76-7.08-9.59-14.86l0-.12a21.55,21.55,0,0,0,.66-4.67A57,57,0,0,0,77.17,49C78.68,58,76.86,62.24,75.85,63.83ZM78.44,46.7C73.48,45,61.54,40,57.81,31.1h0a15.35,15.35,0,0,0,0-3.19l.27.09c4.16,1.11,9.32,2.49,13.27,4,1,1.27,6.45,8.22,7.44,14.79A1.24,1.24,0,0,0,78.44,46.7Z" />
         </g>
      </svg>
   </g>
   <g opacity="1" transform="rotate(0 103.48700000000001 242.81770000000003)">
      <svg width="109.5835" height="94" x="103.48700000000001" y="242.81770000000003" version="1.1" preserveAspectRatio="none" viewBox="-0.4 -30.8 37.4 32.08">
         <g transform="matrix(1 0 0 1 0 0)" class="azm6CZq_Ugcolor">
            <path d="M2-4.08L2-4.08L2-27.04Q2-27.32 6.56-29.02Q11.12-30.72 11.80-30.72Q12.48-30.72 13.86-29.08Q15.24-27.44 15.24-26.12L15.24-26.12L15.24-15.64L17.20-15.64L17.20-14.68L15.24-13.68L15.24-5.92Q15.24-3.72 17.16-3.32L17.16-3.32L17.16-2.44L12.80 0Q11.92-0.36 11.16-1.18Q10.40-2 10.40-2.72L10.40-2.72L10.40-13.68L6.80-13.68L6.80-6.16Q6.80-4.68 7.12-4.04Q7.44-3.40 8.44-3.40L8.44-3.40L8.44-2.16L0.24 1.28L-0.40 0Q0.48 0 1.28-1.04L1.28-1.04Q2-2.04 2-4.08ZM8.36-27L8.36-27Q7.56-27 6.80-26.40L6.80-26.40L6.80-14.60L9.16-15.64L10.40-15.64L10.40-24.04Q10.40-27 8.36-27Z M28.76-26.92L28.76-26.92Q28.36-26.92 28.04-26.52L28.04-26.52L28.04-15.96L33.68-15.96L33.68-15L31.68-14L28.04-14L28.04-10Q28.04-5.56 28.92-4.80L28.92-4.80Q30.24-3.68 31.80-3.52Q33.36-3.36 35.16-3.36L35.16-3.36L35.16-2.20Q34.96-2.20 32.20-1.10Q29.44 0 28.84 0L28.84 0Q27.60 0 25.42-1.92Q23.24-3.84 23.24-6.08L23.24-6.08L23.24-27.12Q23.24-27.40 27.82-29.10Q32.40-30.80 33.08-30.80L33.08-30.80Q33.32-30.80 33.64-29.64Q33.96-28.48 34.38-26.84Q34.80-25.20 35.26-24.42Q35.72-23.64 37-23.64L37-23.64L37-22.84Q36.12-22.44 34.02-21.42Q31.92-20.40 31.76-20.40L31.76-20.40Q31.16-20.40 30.24-23.66Q29.32-26.92 28.76-26.92Z" />
         </g>
      </svg>
   </g>
   <g opacity="1" transform="rotate(0 0 164.8135)">
      <svg width="316.5576" height="52" x="0" y="164.8135" version="1.1" preserveAspectRatio="none" viewBox="-0.4 -30.8 230.84 37.92">
         <g transform="matrix(1 0 0 1 0 0)" class="companyName">
            <path d="M2-4.08L2-4.08L2-27.04Q2-27.32 6.56-29.02Q11.12-30.72 11.80-30.72Q12.48-30.72 13.86-29.08Q15.24-27.44 15.24-26.12L15.24-26.12L15.24-15.64L17.20-15.64L17.20-14.68L15.24-13.68L15.24-5.92Q15.24-3.72 17.16-3.32L17.16-3.32L17.16-2.44L12.80 0Q11.92-0.36 11.16-1.18Q10.40-2 10.40-2.72L10.40-2.72L10.40-13.68L6.80-13.68L6.80-6.16Q6.80-4.68 7.12-4.04Q7.44-3.40 8.44-3.40L8.44-3.40L8.44-2.16L0.24 1.28L-0.40 0Q0.48 0 1.28-1.04L1.28-1.04Q2-2.04 2-4.08ZM8.36-27L8.36-27Q7.56-27 6.80-26.40L6.80-26.40L6.80-14.60L9.16-15.64L10.40-15.64L10.40-24.04Q10.40-27 8.36-27Z M25.64-19.08L25.64-19.08Q24.88-19.08 24.08-18.44L24.08-18.44L24.08-2.56Q25.12-2.56 26.40-3.24Q27.68-3.92 27.68-4.68L27.68-4.68L27.68-16.12Q27.68-19.08 25.64-19.08ZM19.24 4.40L19.24 4.40L19.24-16.64Q19.24-17.56 18.74-18.44Q18.24-19.32 17.32-19.44L17.32-19.44L17.32-20.32Q17.60-20.36 21.68-22.76L21.68-22.76Q22.60-22.36 23.34-21.58Q24.08-20.80 24.08-20.12L24.08-20.12Q28.36-22.76 29.08-22.76L29.08-22.76Q29.36-22.76 30.14-22.14Q30.92-21.52 31.70-20.34Q32.48-19.16 32.48-17.92L32.48-17.92L32.48-3.68Q32.48-3.40 28.94-2.02Q25.40-0.64 24.04-0.28L24.04-0.28L24.04 1.20Q24.04 3.64 25.68 3.96L25.68 3.96L25.68 4.84L21.64 7.12Q20.76 6.76 20.00 5.94Q19.24 5.12 19.24 4.40Z M42.84-19.08L42.84-19.08Q42.08-19.08 41.28-18.44L41.28-18.44L41.28-2.56Q42.32-2.56 43.60-3.24Q44.88-3.92 44.88-4.68L44.88-4.68L44.88-16.12Q44.88-19.08 42.84-19.08ZM36.44 4.40L36.44 4.40L36.44-16.64Q36.44-17.56 35.94-18.44Q35.44-19.32 34.52-19.44L34.52-19.44L34.52-20.32Q34.80-20.36 38.88-22.76L38.88-22.76Q39.80-22.36 40.54-21.58Q41.28-20.80 41.28-20.12L41.28-20.12Q45.56-22.76 46.28-22.76L46.28-22.76Q46.56-22.76 47.34-22.14Q48.12-21.52 48.90-20.34Q49.68-19.16 49.68-17.92L49.68-17.92L49.68-3.68Q49.68-3.40 46.14-2.02Q42.60-0.64 41.24-0.28L41.24-0.28L41.24 1.20Q41.24 3.64 42.88 3.96L42.88 3.96L42.88 4.84L38.84 7.12Q37.96 6.76 37.20 5.94Q36.44 5.12 36.44 4.40Z M66.04-17.52L66.04-17.52L66.04-6.20Q66.04-4.72 66.52-4.14Q67-3.56 68-3.32L68-3.32L68-2.44L63.64 0Q62.76-0.36 62-1.18Q61.24-2 61.24-2.68L61.24-2.68L56.24 0Q56.12-0.08 55.88-0.22Q55.64-0.36 55.06-0.82Q54.48-1.28 54.04-1.80L54.04-1.80Q52.84-3.12 52.84-4.80L52.84-4.80L52.84-11.36Q52.84-12 54.92-13Q57-14 59.08-14.64L59.08-14.64L61.20-15.32Q61.20-17.60 60-18.50Q58.80-19.40 55.36-19.40L55.36-19.40L55.36-20.60Q61.56-22.80 62.32-22.80L62.32-22.80Q63.64-22.80 64.84-21.08Q66.04-19.36 66.04-17.52ZM57.64-6.24Q57.64-5.20 58.26-4.54Q58.88-3.88 59.64-3.88Q60.40-3.88 61.24-4.48L61.24-4.48L61.24-13.52Q60.24-13.16 59.74-12.92Q59.24-12.68 58.68-12.16L58.68-12.16Q57.64-11.20 57.64-8.84L57.64-8.84L57.64-6.24Z M68.08-19.52L68.08-20.40L72.48-22.80Q72.76-22.72 73.14-22.58Q73.52-22.44 74.18-21.80Q74.84-21.16 74.84-20.36L74.84-20.36Q75.04-20.44 76.74-21.62Q78.44-22.80 78.92-22.80L78.92-22.80Q80.20-22.80 81.32-21.12Q82.44-19.44 82.44-18.04L82.44-18.04L82.44-16.08L78.32-13.76L77.64-14.32Q77.64-17.68 77-18.16L77-18.16Q76.28-18.68 74.84-18.68L74.84-18.68L74.84-5.92Q74.84-3.48 76.48-3.16L76.48-3.16L76.48-2.28L72.44 0Q71.56-0.36 70.80-1.18Q70.04-2 70.04-2.72L70.04-2.72L70.04-16Q70.04-17.76 69.42-18.64Q68.80-19.52 68.08-19.52L68.08-19.52Z M95.04-22.80L95.04-22.80Q95.24-22.80 96.04-22.18Q96.84-21.56 97.64-20.46Q98.44-19.36 98.44-18.32L98.44-18.32L98.44-11.60Q98.44-10.88 96.32-9.84Q94.20-8.80 92.22-8.14Q90.24-7.48 90.08-7.48L90.08-7.48Q90.08-4.40 92.76-3.68L92.76-3.68Q94.08-3.36 95.92-3.36L95.92-3.36L95.92-2.20Q89.36 0 88.92 0L88.92 0Q87.72 0 86.48-1.70Q85.24-3.40 85.24-5.68L85.24-5.68L85.24-19.12Q85.24-19.40 89.80-21.10Q94.36-22.80 95.04-22.80ZM93.64-16.44Q93.64-17.56 93.12-18.34Q92.60-19.12 91.80-19.12Q91-19.12 90.04-18.52L90.04-18.52L90.04-9.28Q93.64-10.28 93.64-13.60L93.64-13.60L93.64-16.44Z M102.24-2.72L102.24-2.72L102.24-16.28Q102.24-17.60 101.68-18.56Q101.12-19.52 100.28-19.52L100.28-19.52L100.28-20.40Q100.56-20.44 104.64-22.84L104.64-22.84Q104.92-22.76 105.32-22.62Q105.72-22.48 106.38-21.84Q107.04-21.20 107.04-20.36L107.04-20.36Q107.28-20.48 108.40-21.12L108.40-21.12Q111.36-22.80 111.92-22.80L111.92-22.80Q113.20-22.80 114.32-21.12Q115.44-19.44 115.44-18.04L115.44-18.04L115.44-5.92Q115.44-3.72 117.40-3.32L117.40-3.32L117.40-2.44L113.04 0Q112.16-0.36 111.40-1.18Q110.64-2 110.64-2.72L110.64-2.72L110.64-14.32Q110.64-16.56 110.14-17.74Q109.64-18.92 108.36-18.92L108.36-18.92L107.04-18.68L107.04-5.92Q107.04-3.48 108.68-3.16L108.68-3.16L108.68-2.28L104.64 0Q103.76-0.36 103-1.18Q102.24-2 102.24-2.72Z M123.12-26.96L124.24-26.96L124.24-22.20L126.28-22.20L125.88-20.24L124.24-20.24L124.24-5.92Q124.24-3.48 125.88-3.16L125.88-3.16L125.88-2.28L121.84 0Q120.96-0.36 120.20-1.18Q119.44-2 119.44-2.72L119.44-2.72L119.44-20.20L117.80-20.20L118.20-21.88Q119.40-21.88 121.10-23.50Q122.80-25.12 123.12-26.96L123.12-26.96Z M141.36-26.92L141.36-26.92Q140.96-26.92 140.64-26.52L140.64-26.52L140.64-15.96L146.28-15.96L146.28-15L144.28-14L140.64-14L140.64-10Q140.64-5.56 141.52-4.80L141.52-4.80Q142.84-3.68 144.40-3.52Q145.96-3.36 147.76-3.36L147.76-3.36L147.76-2.20Q147.56-2.20 144.80-1.10Q142.04 0 141.44 0L141.44 0Q140.20 0 138.02-1.92Q135.84-3.84 135.84-6.08L135.84-6.08L135.84-27.12Q135.84-27.40 140.42-29.10Q145-30.80 145.68-30.80L145.68-30.80Q145.92-30.80 146.24-29.64Q146.56-28.48 146.98-26.84Q147.40-25.20 147.86-24.42Q148.32-23.64 149.60-23.64L149.60-23.64L149.60-22.84Q148.72-22.44 146.62-21.42Q144.52-20.40 144.36-20.40L144.36-20.40Q143.76-20.40 142.84-23.66Q141.92-26.92 141.36-26.92Z M150.48-19.52L150.48-19.52L150.48-20.36L154.64-22.80L155.76-22.80L160.44-13.36L161.44-13.84L161.44-17Q161.44-18.16 161.04-18.82Q160.64-19.48 160.24-19.60L160.24-19.60L159.80-19.68L159.80-20.56L163.64-22.84Q163.96-22.84 165-21.94Q166.04-21.04 166.04-20.24L166.04-20.24L166.04-14Q166.04-13.36 161.40-11.68L161.40-11.68L165.44-4.16Q165.96-3.32 167.60-3.32L167.60-3.32L167.60-2.44L163.24 0L162.12 0L157.08-10.12L156-9.60L156-5.84Q156-4.68 156.40-4.02Q156.80-3.36 157.20-3.28L157.20-3.28L157.64-3.16L157.64-2.28L153.80 0Q153.48 0 152.44-0.90Q151.40-1.80 151.40-2.60L151.40-2.60L151.40-9.44Q151.40-10.08 156.16-11.84L156.16-11.84L153.04-18.20Q152.76-18.80 152.30-19.12Q151.84-19.44 151.48-19.48Q151.12-19.52 150.48-19.52Z M173.12-26.96L174.24-26.96L174.24-22.20L176.28-22.20L175.88-20.24L174.24-20.24L174.24-5.92Q174.24-3.48 175.88-3.16L175.88-3.16L175.88-2.28L171.84 0Q170.96-0.36 170.20-1.18Q169.44-2 169.44-2.72L169.44-2.72L169.44-20.20L167.80-20.20L168.20-21.88Q169.40-21.88 171.10-23.50Q172.80-25.12 173.12-26.96L173.12-26.96Z M176.28-19.52L176.28-20.40L180.68-22.80Q180.96-22.72 181.34-22.58Q181.72-22.44 182.38-21.80Q183.04-21.16 183.04-20.36L183.04-20.36Q183.24-20.44 184.94-21.62Q186.64-22.80 187.12-22.80L187.12-22.80Q188.40-22.80 189.52-21.12Q190.64-19.44 190.64-18.04L190.64-18.04L190.64-16.08L186.52-13.76L185.84-14.32Q185.84-17.68 185.20-18.16L185.20-18.16Q184.48-18.68 183.04-18.68L183.04-18.68L183.04-5.92Q183.04-3.48 184.68-3.16L184.68-3.16L184.68-2.28L180.64 0Q179.76-0.36 179-1.18Q178.24-2 178.24-2.72L178.24-2.72L178.24-16Q178.24-17.76 177.62-18.64Q177-19.52 176.28-19.52L176.28-19.52Z M203.44-17.52L203.44-17.52L203.44-6.20Q203.44-4.72 203.92-4.14Q204.40-3.56 205.40-3.32L205.40-3.32L205.40-2.44L201.04 0Q200.16-0.36 199.40-1.18Q198.64-2 198.64-2.68L198.64-2.68L193.64 0Q193.52-0.08 193.28-0.22Q193.04-0.36 192.46-0.82Q191.88-1.28 191.44-1.80L191.44-1.80Q190.24-3.12 190.24-4.80L190.24-4.80L190.24-11.36Q190.24-12 192.32-13Q194.40-14 196.48-14.64L196.48-14.64L198.60-15.32Q198.60-17.60 197.40-18.50Q196.20-19.40 192.76-19.40L192.76-19.40L192.76-20.60Q198.96-22.80 199.72-22.80L199.72-22.80Q201.04-22.80 202.24-21.08Q203.44-19.36 203.44-17.52ZM195.04-6.24Q195.04-5.20 195.66-4.54Q196.28-3.88 197.04-3.88Q197.80-3.88 198.64-4.48L198.64-4.48L198.64-13.52Q197.64-13.16 197.14-12.92Q196.64-12.68 196.08-12.16L196.08-12.16Q195.04-11.20 195.04-8.84L195.04-8.84L195.04-6.24Z M212.96-18.92L212.96-18.92Q212.56-18.92 212.24-18.52L212.24-18.52L212.24-7.48Q212.24-4.40 214.88-3.68L214.88-3.68Q216.24-3.36 218.12-3.36L218.12-3.36L218.12-2.20Q211.56 0 211.12 0L211.12 0Q209.92 0 208.68-1.70Q207.44-3.40 207.44-5.68L207.44-5.68L207.44-19.12Q207.44-19.40 212.02-21.10Q216.60-22.80 217.28-22.80L217.28-22.80Q217.52-22.80 217.84-21.64Q218.16-20.48 218.58-18.84Q219-17.20 219.46-16.42Q219.92-15.64 221.20-15.64L221.20-15.64L221.20-14.84Q220.32-14.44 218.22-13.42Q216.12-12.40 215.96-12.40L215.96-12.40Q215.36-12.40 214.44-15.66Q213.52-18.92 212.96-18.92Z M227.28-26.96L228.40-26.96L228.40-22.20L230.44-22.20L230.04-20.24L228.40-20.24L228.40-5.92Q228.40-3.48 230.04-3.16L230.04-3.16L230.04-2.28L226 0Q225.12-0.36 224.36-1.18Q223.60-2 223.60-2.72L223.60-2.72L223.60-20.20L221.96-20.20L222.36-21.88Q223.56-21.88 225.26-23.50Q226.96-25.12 227.28-26.96L227.28-26.96Z" />
         </g>
      </svg>
   </g>
</svg>